<svg xmlns="http://www.w3.org/2000/svg" xmlns:xlink="http://www.w3.org/1999/xlink" width="1728" zoomAndPan="magnify" viewBox="0 0 1296 863.999991" height="1152" preserveAspectRatio="xMidYMid meet" version="1.0"><defs><g/><clipPath id="0bd5cda27e"><path d="M 236.898438 362.734375 L 357.648438 362.734375 L 357.648438 501.484375 L 236.898438 501.484375 Z M 236.898438 362.734375 " clip-rule="nonzero"/></clipPath></defs><g clip-path="url(#0bd5cda27e)"><path fill="#000000" d="M 258.472656 479.589844 L 336.015625 479.589844 L 336.015625 464.875 L 306.359375 443.128906 L 357.589844 443.128906 L 357.589844 501.167969 L 236.898438 501.167969 L 236.898438 402.636719 L 258.472656 418.164062 Z M 236.898438 362.816406 L 236.898438 389.378906 L 297.230469 432.851562 L 336.015625 404.90625 L 336.015625 432.382812 L 357.589844 432.382812 L 357.589844 362.816406 L 297.242188 406.285156 Z M 236.898438 362.816406 " fill-opacity="1" fill-rule="nonzero"/></g><g fill="#38bdf8" fill-opacity="1"><g transform="translate(378.855719, 467.249996)"><g><path d="M 2.421875 -60.09375 L 2.421875 -67.859375 L 16.96875 -67.859375 L 37.328125 -15.03125 L 38.296875 -15.03125 L 58.640625 -67.859375 L 73.1875 -67.859375 L 73.1875 -60.09375 L 47.984375 0 L 27.625 0 Z M 2.421875 -60.09375 "/></g></g></g><g fill="#38bdf8" fill-opacity="1"><g transform="translate(459.788939, 467.249996)"><g><path d="M 7.75 -67.859375 L 23.265625 -67.859375 L 23.265625 0 L 7.75 0 Z M 7.75 -67.859375 "/></g></g></g><g fill="#38bdf8" fill-opacity="1"><g transform="translate(496.136323, 467.249996)"><g><path d="M 5.328125 -13.578125 L 47.5 -13.578125 C 49.4375 -13.578125 50.804688 -13.976562 51.609375 -14.78125 C 52.421875 -15.59375 52.828125 -16.96875 52.828125 -18.90625 L 52.828125 -19.875 C 52.828125 -21.550781 52.421875 -22.773438 51.609375 -23.546875 C 50.804688 -24.328125 49.4375 -24.878906 47.5 -25.203125 L 20.359375 -29.5625 C 15.515625 -30.34375 11.796875 -32.007812 9.203125 -34.5625 C 6.617188 -37.113281 5.328125 -40.457031 5.328125 -44.59375 L 5.328125 -51.859375 C 5.328125 -56.703125 6.78125 -60.578125 9.6875 -63.484375 C 12.601562 -66.398438 16.484375 -67.859375 21.328125 -67.859375 L 66.40625 -67.859375 L 66.40625 -59.125 L 61.5625 -54.28125 L 26.171875 -54.28125 C 24.234375 -54.28125 22.859375 -53.875 22.046875 -53.0625 C 21.242188 -52.257812 20.84375 -50.890625 20.84375 -48.953125 L 20.84375 -47.984375 C 20.84375 -46.304688 21.242188 -45.078125 22.046875 -44.296875 C 22.859375 -43.523438 24.234375 -42.976562 26.171875 -42.65625 L 53.3125 -38.296875 C 58.15625 -37.515625 61.867188 -35.847656 64.453125 -33.296875 C 67.046875 -30.742188 68.34375 -27.398438 68.34375 -23.265625 L 68.34375 -16 C 68.34375 -11.144531 66.882812 -7.265625 63.96875 -4.359375 C 61.0625 -1.453125 57.1875 0 52.34375 0 L 5.328125 0 Z M 5.328125 -13.578125 "/></g></g></g><g fill="#38bdf8" fill-opacity="1"><g transform="translate(574.161771, 467.249996)"><g><path d="M 7.75 -67.859375 L 23.265625 -67.859375 L 23.265625 0 L 7.75 0 Z M 7.75 -67.859375 "/></g></g></g><g fill="#38bdf8" fill-opacity="1"><g transform="translate(610.509166, 467.249996)"><g><path d="M 22.78125 0.96875 C 17.9375 0.96875 14.054688 -0.484375 11.140625 -3.390625 C 8.234375 -6.296875 6.78125 -10.175781 6.78125 -15.03125 L 6.78125 -52.828125 C 6.78125 -57.671875 8.234375 -61.546875 11.140625 -64.453125 C 14.054688 -67.367188 17.9375 -68.828125 22.78125 -68.828125 L 57.671875 -68.828125 C 62.523438 -68.828125 66.40625 -67.367188 69.3125 -64.453125 C 72.21875 -61.546875 73.671875 -57.671875 73.671875 -52.828125 L 73.671875 -15.03125 C 73.671875 -10.175781 72.21875 -6.296875 69.3125 -3.390625 C 66.40625 -0.484375 62.523438 0.96875 57.671875 0.96875 Z M 51.859375 -12.609375 C 56.054688 -12.609375 58.15625 -14.707031 58.15625 -18.90625 L 58.15625 -48.953125 C 58.15625 -53.148438 56.054688 -55.25 51.859375 -55.25 L 28.59375 -55.25 C 24.394531 -55.25 22.296875 -53.148438 22.296875 -48.953125 L 22.296875 -18.90625 C 22.296875 -14.707031 24.394531 -12.609375 28.59375 -12.609375 Z M 51.859375 -12.609375 "/></g></g></g><g fill="#38bdf8" fill-opacity="1"><g transform="translate(696.288672, 467.249996)"><g><path d="M 7.75 -67.859375 L 24.234375 -67.859375 L 60.09375 -22.296875 L 60.578125 -22.296875 L 59.609375 -35.375 L 59.609375 -67.859375 L 75.125 -67.859375 L 75.125 0 L 58.640625 0 L 22.78125 -45.5625 L 22.296875 -45.5625 L 23.265625 -32.46875 L 23.265625 0 L 7.75 0 Z M 7.75 -67.859375 "/></g></g></g><g fill="#38bdf8" fill-opacity="1"><g transform="translate(784.491305, 467.249996)"><g><path d="M 1.453125 -7.75 L 27.625 -67.859375 L 47.984375 -67.859375 L 74.15625 -7.75 L 74.15625 0 L 59.609375 0 L 54.28125 -13.09375 L 21.328125 -13.09375 L 16 0 L 1.453125 0 Z M 48.953125 -26.171875 L 37.8125 -53.796875 L 26.65625 -26.171875 Z M 48.953125 -26.171875 "/></g></g></g><g fill="#38bdf8" fill-opacity="1"><g transform="translate(865.424513, 467.249996)"><g><path d="M 7.75 -67.859375 L 56.703125 -67.859375 C 61.554688 -67.859375 65.4375 -66.398438 68.34375 -63.484375 C 71.25 -60.578125 72.703125 -56.703125 72.703125 -51.859375 L 72.703125 -40.234375 C 72.703125 -36.804688 72.019531 -34.101562 70.65625 -32.125 C 69.300781 -30.15625 67.785156 -28.65625 66.109375 -27.625 C 64.171875 -26.457031 62.003906 -25.648438 59.609375 -25.203125 L 74.15625 -7.75 L 74.15625 0 L 60.09375 0 L 41.203125 -24.234375 L 23.265625 -24.234375 L 23.265625 0 L 7.75 0 Z M 50.890625 -37.8125 C 55.085938 -37.8125 57.1875 -39.910156 57.1875 -44.109375 L 57.1875 -47.984375 C 57.1875 -52.179688 55.085938 -54.28125 50.890625 -54.28125 L 23.265625 -54.28125 L 23.265625 -37.8125 Z M 50.890625 -37.8125 "/></g></g></g><g fill="#38bdf8" fill-opacity="1"><g transform="translate(950.234796, 467.249996)"><g><path d="M 27.625 -21.328125 L 1.9375 -60.09375 L 1.9375 -67.859375 L 16 -67.859375 L 34.890625 -37.8125 L 35.859375 -37.8125 L 54.765625 -67.859375 L 68.828125 -67.859375 L 68.828125 -60.09375 L 43.140625 -21.328125 L 43.140625 0 L 27.625 0 Z M 27.625 -21.328125 "/></g></g></g></svg>